<svg xmlns="http://www.w3.org/2000/svg" viewBox="0 0 1200 760" width="1200" height="760">
  <style>text{font-family:'Helvetica Neue',Helvetica,Arial,'PingFang SC','Microsoft YaHei',sans-serif}.t{fill:#111827}.s{fill:#6b7280}.h{font-weight:600}</style>
  <defs><marker id="a" markerWidth="10" markerHeight="7" refX="9" refY="3.5" orient="auto"><polygon points="0 0,10 3.5,0 7" fill="#2563eb"/></marker><marker id="o" markerWidth="10" markerHeight="7" refX="9" refY="3.5" orient="auto"><polygon points="0 0,10 3.5,0 7" fill="#ea580c"/></marker></defs>
  <rect width="1200" height="760" fill="#fff"/>
  <text x="600" y="38" text-anchor="middle" class="t h" font-size="22">案例时序：雷暴如何演化为一次村庄救援</text>
  <g text-anchor="middle" class="t" font-size="14">
    <rect x="40" y="70" width="150" height="44" rx="7" fill="#eff6ff" stroke="#bfdbfe"/><text x="115" y="98">天气系统</text>
    <rect x="235" y="70" width="150" height="44" rx="7" fill="#f0fdf4" stroke="#bbf7d0"/><text x="310" y="98">事件总线</text>
    <rect x="430" y="70" width="150" height="44" rx="7" fill="#faf5ff" stroke="#e9d5ff"/><text x="505" y="98">感知系统</text>
    <rect x="625" y="70" width="150" height="44" rx="7" fill="#fff7ed" stroke="#fed7aa"/><text x="700" y="98">NPC 决策</text>
    <rect x="820" y="70" width="150" height="44" rx="7" fill="#fef2f2" stroke="#fecaca"/><text x="895" y="98">资源仲裁</text>
    <rect x="1015" y="70" width="150" height="44" rx="7" fill="#f9fafb" stroke="#d1d5db"/><text x="1090" y="98">世界状态</text>
  </g>
  <g stroke="#9ca3af" stroke-dasharray="5,4"><line x1="115" y1="114" x2="115" y2="710"/><line x1="310" y1="114" x2="310" y2="710"/><line x1="505" y1="114" x2="505" y2="710"/><line x1="700" y1="114" x2="700" y2="710"/><line x1="895" y1="114" x2="895" y2="710"/><line x1="1090" y1="114" x2="1090" y2="710"/></g>
  <g font-size="12" class="t">
    <line x1="115" y1="155" x2="1080" y2="155" stroke="#2563eb" stroke-width="2" marker-end="url(#a)"/><rect x="460" y="140" width="270" height="21" fill="#fff"/><text x="595" y="155" text-anchor="middle">写入 Weather=Thunderstorm</text>
    <line x1="1090" y1="215" x2="320" y2="215" stroke="#ea580c" stroke-width="2" marker-end="url(#o)"/><rect x="570" y="200" width="270" height="21" fill="#fff"/><text x="705" y="215" text-anchor="middle">发布 LightningStrike / FireStarted</text>
    <line x1="310" y1="275" x2="495" y2="275" stroke="#2563eb" stroke-width="2" marker-end="url(#a)"/><rect x="335" y="260" width="140" height="21" fill="#fff"/><text x="405" y="275" text-anchor="middle">区域兴趣过滤</text>
    <line x1="505" y1="335" x2="690" y2="335" stroke="#2563eb" stroke-width="2" marker-end="url(#a)"/><rect x="525" y="320" width="145" height="21" fill="#fff"/><text x="598" y="335" text-anchor="middle">烟、热、呼救刺激</text>
    <rect x="635" y="365" width="130" height="76" rx="5" fill="#fff7ed" stroke="#fed7aa"/><text x="700" y="386" text-anchor="middle" class="h">Utility 评分</text><text x="700" y="407" text-anchor="middle">救火 0.82</text><text x="700" y="426" text-anchor="middle">逃生 0.61</text>
    <line x1="700" y1="465" x2="885" y2="465" stroke="#ea580c" stroke-width="2" marker-end="url(#o)"/><rect x="745" y="450" width="100" height="21" fill="#fff"/><text x="795" y="465" text-anchor="middle">预约水井槽位</text>
    <line x1="895" y1="525" x2="710" y2="525" stroke="#2563eb" stroke-width="2" marker-end="url(#a)"/><rect x="747" y="510" width="110" height="21" fill="#fff"/><text x="802" y="525" text-anchor="middle">租约 token</text>
    <line x1="700" y1="585" x2="1080" y2="585" stroke="#ea580c" stroke-width="2" marker-end="url(#o)"/><rect x="805" y="570" width="170" height="21" fill="#fff"/><text x="890" y="585" text-anchor="middle">取水 → 导航 → 泼水</text>
    <line x1="1090" y1="645" x2="320" y2="645" stroke="#2563eb" stroke-width="2" marker-end="url(#a)"/><rect x="585" y="630" width="240" height="21" fill="#fff"/><text x="705" y="645" text-anchor="middle">FireIntensity 降低，事件更新</text>
  </g>
  <g transform="translate(45 735)" font-size="12" class="s"><line x1="0" y1="0" x2="32" y2="0" stroke="#2563eb" stroke-width="2" marker-end="url(#a)"/><text x="42" y="4">状态 / 事件数据</text><line x1="180" y1="0" x2="212" y2="0" stroke="#ea580c" stroke-width="2" marker-end="url(#o)"/><text x="222" y="4">意图 / 动作提交</text></g>
</svg>
